<mxfile host="app.diagrams.net" modified="2021-03-30T09:35:40.865Z" agent="5.0 (Windows NT 10.0; Win64; x64) AppleWebKit/537.36 (KHTML, like Gecko) Chrome/89.0.4389.90 Safari/537.36" etag="h5zLCfe2gxRTUUAnxNGv" version="14.4.9" type="github">
  <diagram id="2DmRVyYwfNASdT6m3vqB" name="Page-1">
    <mxGraphModel dx="1422" dy="762" grid="1" gridSize="10" guides="1" tooltips="1" connect="1" arrows="1" fold="1" page="1" pageScale="1" pageWidth="827" pageHeight="1169" math="0" shadow="0">
      <root>
        <mxCell id="0" />
        <mxCell id="1" parent="0" />
        <mxCell id="-cJjoUevUKE6hkhvj7XW-1" value="服务端流式RPC" style="rounded=1;whiteSpace=wrap;html=1;" vertex="1" parent="1">
          <mxGeometry x="94" y="120" width="120" height="60" as="geometry" />
        </mxCell>
        <mxCell id="-cJjoUevUKE6hkhvj7XW-4" style="edgeStyle=orthogonalEdgeStyle;rounded=0;orthogonalLoop=1;jettySize=auto;html=1;exitX=1;exitY=0.25;exitDx=0;exitDy=0;entryX=0;entryY=0.25;entryDx=0;entryDy=0;" edge="1" parent="1" source="-cJjoUevUKE6hkhvj7XW-2" target="-cJjoUevUKE6hkhvj7XW-3">
          <mxGeometry relative="1" as="geometry" />
        </mxCell>
        <mxCell id="-cJjoUevUKE6hkhvj7XW-2" value="服务端" style="rounded=1;whiteSpace=wrap;html=1;" vertex="1" parent="1">
          <mxGeometry x="354" y="120" width="120" height="60" as="geometry" />
        </mxCell>
        <mxCell id="-cJjoUevUKE6hkhvj7XW-5" style="edgeStyle=orthogonalEdgeStyle;rounded=0;orthogonalLoop=1;jettySize=auto;html=1;exitX=0;exitY=0.75;exitDx=0;exitDy=0;entryX=1;entryY=0.75;entryDx=0;entryDy=0;" edge="1" parent="1" source="-cJjoUevUKE6hkhvj7XW-3" target="-cJjoUevUKE6hkhvj7XW-2">
          <mxGeometry relative="1" as="geometry" />
        </mxCell>
        <mxCell id="-cJjoUevUKE6hkhvj7XW-3" value="客户端" style="rounded=1;whiteSpace=wrap;html=1;" vertex="1" parent="1">
          <mxGeometry x="614" y="120" width="120" height="60" as="geometry" />
        </mxCell>
        <mxCell id="-cJjoUevUKE6hkhvj7XW-7" value="普通请求" style="text;html=1;strokeColor=none;fillColor=none;align=center;verticalAlign=middle;whiteSpace=wrap;rounded=0;" vertex="1" parent="1">
          <mxGeometry x="514" y="180" width="70" height="20" as="geometry" />
        </mxCell>
        <mxCell id="-cJjoUevUKE6hkhvj7XW-8" value="stream 流式返回" style="text;html=1;strokeColor=none;fillColor=none;align=center;verticalAlign=middle;whiteSpace=wrap;rounded=0;" vertex="1" parent="1">
          <mxGeometry x="484" y="110" width="110" height="20" as="geometry" />
        </mxCell>
        <mxCell id="-cJjoUevUKE6hkhvj7XW-9" value="&lt;p style=&quot;line-height: 120% ; font-size: 20px&quot;&gt;GRPC&lt;/p&gt;" style="text;html=1;strokeColor=none;fillColor=none;align=center;verticalAlign=middle;whiteSpace=wrap;rounded=0;" vertex="1" parent="1">
          <mxGeometry x="338" y="20" width="136" height="40" as="geometry" />
        </mxCell>
        <mxCell id="-cJjoUevUKE6hkhvj7XW-11" value="客户端流式RPC" style="rounded=1;whiteSpace=wrap;html=1;" vertex="1" parent="1">
          <mxGeometry x="94" y="230" width="120" height="60" as="geometry" />
        </mxCell>
        <mxCell id="-cJjoUevUKE6hkhvj7XW-31" style="edgeStyle=orthogonalEdgeStyle;rounded=0;orthogonalLoop=1;jettySize=auto;html=1;exitX=1;exitY=0.25;exitDx=0;exitDy=0;entryX=0;entryY=0.25;entryDx=0;entryDy=0;" edge="1" parent="1" source="-cJjoUevUKE6hkhvj7XW-13" target="-cJjoUevUKE6hkhvj7XW-15">
          <mxGeometry relative="1" as="geometry" />
        </mxCell>
        <mxCell id="-cJjoUevUKE6hkhvj7XW-13" value="服务端" style="rounded=1;whiteSpace=wrap;html=1;" vertex="1" parent="1">
          <mxGeometry x="354" y="230" width="120" height="60" as="geometry" />
        </mxCell>
        <mxCell id="-cJjoUevUKE6hkhvj7XW-32" style="edgeStyle=orthogonalEdgeStyle;rounded=0;orthogonalLoop=1;jettySize=auto;html=1;exitX=0;exitY=0.75;exitDx=0;exitDy=0;entryX=1;entryY=0.75;entryDx=0;entryDy=0;" edge="1" parent="1" source="-cJjoUevUKE6hkhvj7XW-15" target="-cJjoUevUKE6hkhvj7XW-13">
          <mxGeometry relative="1" as="geometry" />
        </mxCell>
        <mxCell id="-cJjoUevUKE6hkhvj7XW-15" value="客户端" style="rounded=1;whiteSpace=wrap;html=1;" vertex="1" parent="1">
          <mxGeometry x="614" y="230" width="120" height="60" as="geometry" />
        </mxCell>
        <mxCell id="-cJjoUevUKE6hkhvj7XW-16" value="普通返回" style="text;html=1;strokeColor=none;fillColor=none;align=center;verticalAlign=middle;whiteSpace=wrap;rounded=0;" vertex="1" parent="1">
          <mxGeometry x="514" y="220" width="70" height="20" as="geometry" />
        </mxCell>
        <mxCell id="-cJjoUevUKE6hkhvj7XW-17" value="stream 流式请求" style="text;html=1;strokeColor=none;fillColor=none;align=center;verticalAlign=middle;whiteSpace=wrap;rounded=0;" vertex="1" parent="1">
          <mxGeometry x="490" y="280" width="110" height="20" as="geometry" />
        </mxCell>
        <mxCell id="-cJjoUevUKE6hkhvj7XW-18" value="双向流式RPC" style="rounded=1;whiteSpace=wrap;html=1;" vertex="1" parent="1">
          <mxGeometry x="94" y="340" width="120" height="60" as="geometry" />
        </mxCell>
        <mxCell id="-cJjoUevUKE6hkhvj7XW-19" style="edgeStyle=orthogonalEdgeStyle;rounded=0;orthogonalLoop=1;jettySize=auto;html=1;exitX=1;exitY=0.25;exitDx=0;exitDy=0;entryX=0;entryY=0.25;entryDx=0;entryDy=0;" edge="1" parent="1" source="-cJjoUevUKE6hkhvj7XW-20" target="-cJjoUevUKE6hkhvj7XW-22">
          <mxGeometry relative="1" as="geometry" />
        </mxCell>
        <mxCell id="-cJjoUevUKE6hkhvj7XW-20" value="服务端" style="rounded=1;whiteSpace=wrap;html=1;" vertex="1" parent="1">
          <mxGeometry x="354" y="340" width="120" height="60" as="geometry" />
        </mxCell>
        <mxCell id="-cJjoUevUKE6hkhvj7XW-21" style="edgeStyle=orthogonalEdgeStyle;rounded=0;orthogonalLoop=1;jettySize=auto;html=1;exitX=0;exitY=0.75;exitDx=0;exitDy=0;entryX=1;entryY=0.75;entryDx=0;entryDy=0;" edge="1" parent="1" source="-cJjoUevUKE6hkhvj7XW-22" target="-cJjoUevUKE6hkhvj7XW-20">
          <mxGeometry relative="1" as="geometry" />
        </mxCell>
        <mxCell id="-cJjoUevUKE6hkhvj7XW-22" value="客户端" style="rounded=1;whiteSpace=wrap;html=1;" vertex="1" parent="1">
          <mxGeometry x="614" y="340" width="120" height="60" as="geometry" />
        </mxCell>
        <mxCell id="-cJjoUevUKE6hkhvj7XW-23" value="stream 返回" style="text;html=1;strokeColor=none;fillColor=none;align=center;verticalAlign=middle;whiteSpace=wrap;rounded=0;" vertex="1" parent="1">
          <mxGeometry x="514" y="330" width="70" height="20" as="geometry" />
        </mxCell>
        <mxCell id="-cJjoUevUKE6hkhvj7XW-24" value="stream 流式请求" style="text;html=1;strokeColor=none;fillColor=none;align=center;verticalAlign=middle;whiteSpace=wrap;rounded=0;" vertex="1" parent="1">
          <mxGeometry x="500" y="390" width="110" height="20" as="geometry" />
        </mxCell>
        <mxCell id="-cJjoUevUKE6hkhvj7XW-28" value="" style="endArrow=none;html=1;" edge="1" parent="1">
          <mxGeometry width="50" height="50" relative="1" as="geometry">
            <mxPoint x="3" y="460" as="sourcePoint" />
            <mxPoint x="823" y="460" as="targetPoint" />
          </mxGeometry>
        </mxCell>
        <mxCell id="-cJjoUevUKE6hkhvj7XW-33" value="&lt;font style=&quot;font-size: 13px&quot;&gt;https://gitee.com/springzb/grpc-java/blob/master/examples/src/main/java/io/grpc/examples/routeguide/RouteGuideServer.java&lt;/font&gt;" style="text;html=1;strokeColor=none;fillColor=none;align=center;verticalAlign=middle;whiteSpace=wrap;rounded=0;" vertex="1" parent="1">
          <mxGeometry x="10" y="470" width="790" height="70" as="geometry" />
        </mxCell>
      </root>
    </mxGraphModel>
  </diagram>
</mxfile>
